<svg width="27" height="24" viewBox="0 0 27 24" fill="none" xmlns="http://www.w3.org/2000/svg">
<path fill-rule="evenodd" clip-rule="evenodd" d="M23.8065 8.95482C25.7201 12.801 26.4051 17.1425 25.7689 21.391L21.2661 21.5694L1 22.4079L11.8395 4.89267L14.2479 1C18.1914 2.58048 21.5361 5.36403 23.8065 8.95482Z" stroke="#9C9C9C" stroke-width="2" stroke-linecap="round" stroke-linejoin="round"/>
<path d="M21.2662 21.5747C21.3662 18.1254 20.5276 14.7137 18.84 11.7039C17.2109 8.80684 14.7801 6.44173 11.8396 4.89258" stroke="#9C9C9C" stroke-width="2" stroke-linecap="round" stroke-linejoin="round"/>
<path d="M16.6455 17.4695C16.1537 17.4695 15.7535 17.0694 15.7535 16.5775C15.7535 16.0857 16.1537 15.6855 16.6455 15.6855C17.1374 15.6855 17.5375 16.0857 17.5375 16.5775C17.5375 17.0694 17.1374 17.4695 16.6455 17.4695Z" fill="#9C9C9C"/>
<path d="M16.6456 14.793C17.6308 14.793 18.4296 15.5917 18.4296 16.577C18.4296 17.5622 17.6308 18.361 16.6456 18.361C15.6603 18.361 14.8616 17.5622 14.8616 16.577C14.8616 15.5917 15.6603 14.793 16.6456 14.793Z" fill="#707070"/>
<path d="M8.64602 18.4803C8.15418 18.4803 7.75403 18.0801 7.75403 17.5883C7.75403 17.0964 8.15418 16.6963 8.64602 16.6963C9.13787 16.6963 9.53802 17.0964 9.53802 17.5883C9.53802 18.0801 9.13787 18.4803 8.64602 18.4803Z" fill="#9C9C9C"/>
<path d="M8.64605 15.8047C9.63131 15.8047 10.43 16.6034 10.43 17.5887C10.43 18.5739 9.63131 19.3727 8.64605 19.3727C7.66079 19.3727 6.86206 18.5739 6.86206 17.5887C6.86206 16.6034 7.66079 15.8047 8.64605 15.8047Z" fill="#707070"/>
<path d="M13.0777 12.117C12.5858 12.117 12.1857 11.7168 12.1857 11.225C12.1857 10.7332 12.5858 10.333 13.0777 10.333C13.5695 10.333 13.9697 10.7332 13.9697 11.225C13.9697 11.7168 13.5695 12.117 13.0777 12.117Z" fill="#9C9C9C"/>
<path d="M13.0777 9.44043C14.063 9.44043 14.8617 10.2392 14.8617 11.2244C14.8617 12.2097 14.063 13.0084 13.0777 13.0084C12.0924 13.0084 11.2937 12.2097 11.2937 11.2244C11.2937 10.2392 12.0924 9.44043 13.0777 9.44043Z" fill="#707070"/>
</svg>
