<svg width="25" height="20" viewBox="0 0 25 20" fill="none" xmlns="http://www.w3.org/2000/svg">
<path fill-rule="evenodd" clip-rule="evenodd" d="M1.57094 6.66717C1.64804 6.3035 1.9067 6.0069 2.25337 5.88462C2.60005 5.76235 2.98455 5.83211 3.26782 6.06867L5.36782 7.49367C5.64139 7.66086 5.973 7.69985 6.27708 7.60058C6.58116 7.50131 6.82795 7.2735 6.95376 6.97592C10.8663 -0.98983 20.6241 1.3915 23.3803 9.647C23.4563 9.8761 23.4563 10.1241 23.3803 10.3532C20.6241 18.6087 10.8663 20.99 6.95376 13.0243C6.82739 12.7268 6.58006 12.4993 6.27564 12.4006C5.97122 12.302 5.63955 12.3417 5.36625 12.5097L3.26626 13.9347C2.98256 14.1705 2.59809 14.2394 2.25179 14.1165C1.9055 13.9936 1.64747 13.6966 1.57094 13.333C1.55176 13.1992 1.56793 13.0626 1.61782 12.9372L2.49907 10.3975C2.58718 10.1412 2.58718 9.86217 2.49907 9.60584L1.61938 7.0725C1.56728 6.94434 1.55054 6.80423 1.57094 6.66717Z" stroke="#9C9C9C" stroke-width="2" stroke-linecap="round" stroke-linejoin="round"/>
<path d="M14.6888 13.2563C14.3009 13.6494 14.3051 14.2825 14.6982 14.6704C15.0913 15.0584 15.7244 15.0542 16.1124 14.6611L14.6888 13.2563ZM19.4608 11.268C19.8487 10.8749 19.8445 10.2417 19.4514 9.8538C19.0583 9.46587 18.4252 9.47007 18.0372 9.86317L19.4608 11.268ZM10.7435 12.7306C10.3556 13.1237 10.3598 13.7568 10.7529 14.1448C11.146 14.5327 11.7791 14.5285 12.167 14.1354L10.7435 12.7306ZM18.8624 7.35082C19.2503 6.95772 19.2461 6.32456 18.853 5.93663C18.4599 5.54871 17.8267 5.5529 17.4388 5.946L18.8624 7.35082ZM10.2247 8.73267C9.83682 9.12577 9.84101 9.75892 10.2341 10.1468C10.6272 10.5348 11.2604 10.5306 11.6483 10.1375L10.2247 8.73267ZM14.9967 6.7444C15.3847 6.3513 15.3805 5.71815 14.9874 5.33022C14.5943 4.94229 13.9611 4.94648 13.5732 5.33958L14.9967 6.7444ZM16.1124 14.6611L19.4608 11.268L18.0372 9.86317L14.6888 13.2563L16.1124 14.6611ZM12.167 14.1354L18.8624 7.35082L17.4388 5.946L10.7435 12.7306L12.167 14.1354ZM11.6483 10.1375L14.9967 6.7444L13.5732 5.33958L10.2247 8.73267L11.6483 10.1375Z" fill="#9C9C9C"/>
</svg>
