<svg width="26" height="28" viewBox="0 0 26 28" fill="none" xmlns="http://www.w3.org/2000/svg">
<path fill-rule="evenodd" clip-rule="evenodd" d="M19.7798 19.5593C17.5089 20.1632 15.4182 21.3047 13.6861 22.8866C10.7439 25.3553 6.73766 28.1553 4.33766 25.1282C2.76578 23.1495 1.68297 19.5391 2.18766 13.2982C3.46891 -2.51714 9.54391 1.76686 9.54391 3.08441C9.54391 4.40197 10.8236 9.34553 18.5002 8.68441C26.1767 8.0233 24.897 18.5715 19.7798 19.5593Z" stroke="#05AABB" stroke-width="2" stroke-linecap="round" stroke-linejoin="round"/>
<path fill-rule="evenodd" clip-rule="evenodd" d="M7.40801 12.6169C6.3807 14.1399 6.56226 16.1706 7.84363 17.489C9.12501 18.8075 11.1576 19.0551 12.7205 18.0831L12.8315 18.0115C14.1286 17.1488 14.7857 15.6006 14.5031 14.0733C14.2205 12.546 13.0522 11.3325 11.5315 10.9866L11.4221 10.9633C9.87119 10.6547 8.28642 11.3075 7.40801 12.6169Z" stroke="#05AABB" stroke-width="2" stroke-linecap="round" stroke-linejoin="round"/>
<path d="M9.35483 14.7772C9.48624 14.1234 9.99962 13.6123 10.6564 13.4815" stroke="#05AABB" stroke-width="2" stroke-linecap="round"/>
</svg>
